Cover: http://www4.picturepush.com/photo/a/9109737/img/The-Avengers/cover.jpg


Screenshots 
http://www5.picturepush.com/photo/a/9091213/img/The-Avengers/1.png 
http://www1.picturepush.com/photo/a/9091214/img/The-Avengers/2.png 
http://www2.picturepush.com/photo/a/9091215/img/The-Avengers/3.png 
http://www3.picturepush.com/photo/a/9091216/img/The-Avengers/4.png 
http://www4.picturepush.com/photo/a/9091217/img/The-Avengers/5.png 
http://www5.picturepush.com/photo/a/9091218/img/The-Avengers/6.png 
http://www1.picturepush.com/photo/a/9091219/img/The-Avengers/7.png 
http://www3.picturepush.com/photo/a/9091221/img/The-Avengers/8.png
 
General

Format                                   : Matroska
Format version                           : Version 2
File size                                : 4.43 GiB
Duration                                 : 2h 22mn
Overall bit rate                         : 4 440 Kbps

Video
ID                                       : 2
Format                                   : AVC
Format/Info                              : Advanced Video Codec
Format profile                           : High@L4.1
Format settings, ReFrames                : 4 frames
Muxing mode                              : Header stripping
Duration                                 : 2h 22mn
Bit rate                                 : 2 485 Kbps
Width                                    : 1 920 pixels
Height                                   : 1 080 pixels
Display aspect ratio                     : 16:9
Frame rate                               : 23.976 fps
Bit depth                                : 8 bits
Stream size                              : 2.39 GiB (54%)

Audio #1
ID                                       : 1
Format                                   : AC-3
Format/Info                              : Audio Coding 3
Codec ID                                 : A_AC3
Duration                                 : 2h 22mn
Bit rate                                 : 448 Kbps
Channel(s)                               : 6 channels
Channel positions                        : Front: L C R, Side: L R, LFE
Sampling rate                            : 48.0 KHz
Bit depth                                : 16 bits
Stream size                              : 458 MiB (10%)
Title                                    : 5.1 Hindi Audio ~ Kishan(Wall.e)
Language                                 : Hindi

Audio #2
ID                                       : 3
Format                                   : DTS
Format/Info                              : Digital Theater Systems
Codec ID                                 : A_DTS
Duration                                 : 2h 22mn
Bit rate                                 : 1 510 Kbps
Channel(s)                               : 6 channels
Channel positions                        : Front: L C R, Side: L R, LFE
Sampling rate                            : 48.0 KHz
Bit depth                                : 24 bits
Stream size                              : 1.51 GiB (34%)
Title                                    : 5.1 English Audio ~ Kishan(Wall.e)
Language                                 : English